<svg xmlns="http://www.w3.org/2000/svg" width="1200" height="900" viewBox="0 0 1200 900" fill="none">
  <defs>
    <linearGradient id="bg2" x1="0" y1="0" x2="1200" y2="900" gradientUnits="userSpaceOnUse">
      <stop offset="0" stop-color="#F0FDF4"/>
      <stop offset="1" stop-color="#DCFCE7"/>
    </linearGradient>
  </defs>
  <rect width="1200" height="900" fill="url(#bg2)"/>
  <circle cx="1020" cy="140" r="180" fill="#10B981" fill-opacity="0.12"/>
  <circle cx="170" cy="740" r="200" fill="#059669" fill-opacity="0.1"/>
  <rect x="150" y="130" width="900" height="640" rx="34" fill="#FFFFFF" fill-opacity="0.84"/>
  <rect x="220" y="220" width="760" height="56" rx="14" fill="#065F46" fill-opacity="0.12"/>
  <g fill="#047857" fill-opacity="0.2">
    <circle cx="350" cy="470" r="84"/>
    <circle cx="600" cy="470" r="84"/>
    <circle cx="850" cy="470" r="84"/>
  </g>
  <g fill="#065F46" fill-opacity="0.18">
    <rect x="272" y="560" width="156" height="102" rx="26"/>
    <rect x="522" y="560" width="156" height="102" rx="26"/>
    <rect x="772" y="560" width="156" height="102" rx="26"/>
  </g>
  <rect x="300" y="340" width="120" height="22" rx="10" fill="#065F46" fill-opacity="0.26"/>
  <rect x="550" y="340" width="120" height="22" rx="10" fill="#065F46" fill-opacity="0.26"/>
  <rect x="800" y="340" width="120" height="22" rx="10" fill="#065F46" fill-opacity="0.26"/>
  <rect x="240" y="700" width="720" height="20" rx="8" fill="#047857" fill-opacity="0.14"/>
</svg>
