<svg xmlns="http://www.w3.org/2000/svg" width="1200" height="900" viewBox="0 0 1200 900" fill="none">
  <defs>
    <linearGradient id="bg" x1="0" y1="0" x2="1200" y2="900" gradientUnits="userSpaceOnUse">
      <stop offset="0" stop-color="#0F3D2A"/>
      <stop offset="1" stop-color="#1F7A5B"/>
    </linearGradient>
    <linearGradient id="card" x1="210" y1="180" x2="980" y2="760" gradientUnits="userSpaceOnUse">
      <stop offset="0" stop-color="#E6FFF4" stop-opacity="0.92"/>
      <stop offset="1" stop-color="#CCF7E5" stop-opacity="0.82"/>
    </linearGradient>
  </defs>
  <rect width="1200" height="900" fill="url(#bg)"/>
  <circle cx="1030" cy="120" r="220" fill="#34D399" fill-opacity="0.18"/>
  <circle cx="170" cy="780" r="240" fill="#6EE7B7" fill-opacity="0.2"/>
  <rect x="180" y="150" width="840" height="610" rx="34" fill="url(#card)"/>
  <rect x="250" y="240" width="700" height="60" rx="14" fill="#0F3D2A" fill-opacity="0.12"/>
  <rect x="250" y="330" width="620" height="28" rx="10" fill="#0F3D2A" fill-opacity="0.16"/>
  <rect x="250" y="376" width="560" height="28" rx="10" fill="#0F3D2A" fill-opacity="0.12"/>
  <rect x="250" y="422" width="510" height="28" rx="10" fill="#0F3D2A" fill-opacity="0.1"/>
  <circle cx="870" cy="560" r="78" fill="#10B981" fill-opacity="0.22"/>
  <circle cx="825" cy="595" r="54" fill="#059669" fill-opacity="0.34"/>
  <circle cx="905" cy="610" r="48" fill="#34D399" fill-opacity="0.4"/>
  <path d="M720 640C752 588 805 552 870 540" stroke="#047857" stroke-opacity="0.58" stroke-width="10" stroke-linecap="round"/>
  <path d="M730 695C770 657 812 640 854 638" stroke="#065F46" stroke-opacity="0.45" stroke-width="8" stroke-linecap="round"/>
</svg>
